<?xml version="1.0" standalone="no"?>
<!DOCTYPE svg PUBLIC "-//W3C//DTD SVG 20010904//EN"
 "http://www.w3.org/TR/2001/REC-SVG-20010904/DTD/svg10.dtd">
<svg version="1.0" xmlns="http://www.w3.org/2000/svg"
 width="1216.000000pt" height="912.000000pt" viewBox="0 0 1216.000000 912.000000"
 preserveAspectRatio="xMidYMid meet">

<g transform="translate(0.000000,912.000000) scale(0.100000,-0.100000)"
fill="#000000" stroke="none">
<path d="M9125 7273 c-60 -31 -92 -62 -130 -127 -24 -41 -29 -62 -33 -146 l-5
-98 -44 -5 c-31 -3 -54 -13 -72 -31 l-26 -26 -2 -283 c-2 -265 -1 -285 18
-315 10 -18 31 -37 45 -42 15 -6 170 -10 370 -10 379 0 389 1 419 60 21 41 22
533 1 584 -18 44 -51 66 -98 66 -21 0 -38 3 -38 8 -2 152 -8 191 -35 240 -15
28 -43 65 -61 82 -80 72 -216 91 -309 43z m225 -92 c67 -40 88 -86 89 -193 l1
-88 -195 0 -195 0 0 83 c1 125 39 187 136 222 51 19 107 11 164 -24z"/>
<path d="M3510 7245 c-30 -8 -68 -14 -83 -15 -79 -1 -249 -138 -291 -235 -27
-59 -32 -81 -87 -340 -35 -166 -86 -282 -161 -362 -101 -108 -113 -193 -47
-320 39 -74 112 -162 153 -185 11 -6 41 -13 67 -17 l48 -6 -30 -65 c-19 -39
-26 -66 -20 -68 6 -2 11 -9 11 -15 0 -16 470 -483 494 -491 30 -10 89 11 126
47 70 66 170 177 160 177 -6 0 -33 -12 -60 -26 -46 -24 -53 -25 -114 -16 -71
12 -179 63 -243 115 -21 18 -57 46 -81 62 -127 85 -182 166 -182 266 0 32 4
60 10 64 5 3 9 18 9 33 0 52 13 102 27 102 16 0 38 75 29 99 -6 14 -8 14 -16
-4 -14 -30 -1 156 17 255 22 115 70 267 100 312 31 49 62 64 174 84 122 22
198 11 417 -62 185 -62 253 -71 321 -40 37 17 45 18 53 5 24 -38 3 -176 -77
-497 -28 -113 -25 -135 18 -115 18 8 31 36 61 134 21 68 52 153 68 189 16 36
32 80 35 98 4 17 13 37 20 43 8 6 14 22 14 35 0 27 19 34 90 33 25 0 81 1 125
2 44 1 105 2 135 0 30 -1 89 -2 130 -2 41 1 107 -1 145 -3 39 -2 98 0 132 4
34 3 70 2 79 -3 10 -6 24 -5 39 3 17 9 28 9 43 1 26 -14 69 -14 78 0 3 6 20 8
38 5 68 -13 272 -17 300 -6 20 7 32 8 40 0 13 -13 157 -13 192 1 21 7 34 7 51
-2 17 -9 26 -9 37 0 11 9 25 9 61 0 36 -9 63 -9 109 -1 49 9 181 11 181 2 0
-6 142 -9 155 -3 25 11 104 12 117 1 8 -6 28 -6 57 0 24 5 50 6 56 2 7 -4 40
-5 73 -2 81 6 115 5 155 -3 18 -4 38 -3 45 3 8 7 42 6 105 -1 68 -8 102 -8
123 0 17 7 41 8 57 4 30 -9 127 -6 184 4 23 5 49 3 68 -5 23 -9 33 -10 44 -1
10 9 31 9 77 2 46 -8 72 -7 96 1 26 9 38 9 58 -2 21 -11 30 -12 45 -2 24 15
67 16 75 2 7 -11 130 -7 193 6 20 4 38 2 47 -6 13 -10 15 -9 16 11 0 13 3 48
5 78 10 103 12 102 -129 96 -68 -3 -137 -1 -156 5 -21 6 -39 6 -46 0 -11 -9
-23 -10 -180 -7 -109 2 -213 1 -260 -3 -16 -1 -57 1 -90 5 -82 9 -126 7 -142
-6 -9 -9 -17 -8 -28 1 -10 8 -33 10 -72 6 -93 -10 -112 -9 -169 4 -46 11 -59
11 -93 -2 -34 -14 -48 -14 -100 -3 -49 10 -64 10 -79 0 -15 -11 -29 -11 -77 0
-37 9 -64 11 -75 5 -11 -6 -32 -5 -55 1 -28 8 -44 8 -60 -1 -18 -9 -31 -10
-58 -1 -26 9 -41 9 -60 0 -20 -9 -30 -9 -41 0 -15 12 -61 6 -83 -12 -9 -6 -17
-6 -26 2 -10 7 -90 9 -268 5 -367 -7 -462 -7 -483 1 -11 5 -27 3 -37 -4 -14
-8 -24 -8 -37 0 -13 8 -24 9 -37 2 -12 -7 -36 -6 -76 2 -32 7 -61 10 -64 7 -5
-5 -205 -14 -300 -13 -17 0 -173 8 -200 11 -5 0 -32 -4 -60 -9 -30 -5 -72 -5
-105 1 -63 10 -70 10 -126 2 l-41 -6 -5 76 c-4 63 -11 84 -39 132 -19 31 -50
68 -69 83 -19 14 -52 44 -75 66 -47 46 -181 118 -275 147 -36 11 -76 26 -90
33 -40 20 -264 27 -330 10z"/>
<path d="M3418 6390 c-10 -6 -18 -18 -18 -26 0 -11 9 -13 38 -8 27 4 61 -3
127 -26 110 -38 140 -42 140 -17 0 37 -245 103 -287 77z"/>
<path d="M3777 6325 c-16 -16 -27 -37 -27 -53 -1 -15 -9 -52 -20 -82 -10 -30
-16 -58 -13 -63 2 -4 -1 -15 -8 -23 -7 -8 -13 -27 -15 -42 -1 -15 -5 -38 -9
-52 -4 -14 -9 -49 -12 -78 -5 -45 -2 -56 16 -76 25 -27 137 -54 153 -38 19 19
26 86 24 262 0 99 2 188 5 198 4 9 0 29 -8 45 -17 35 -49 35 -86 2z"/>
<path d="M3522 6268 c-16 -16 -16 -54 1 -61 6 -2 22 0 35 4 18 7 23 15 20 36
-3 31 -34 43 -56 21z"/>
<path d="M3926 6254 c-4 -9 -5 -18 -4 -20 4 -4 52 -13 103 -19 66 -9 93 -15
120 -25 29 -11 49 -5 39 12 -11 17 -68 37 -140 48 -38 6 -79 13 -90 16 -14 4
-23 0 -28 -12z"/>
<path d="M3981 6156 c-20 -24 -10 -61 16 -62 29 -2 45 18 41 48 -4 27 -39 36
-57 14z"/>
<path d="M3225 5873 c-4 -21 -10 -58 -15 -83 -5 -24 -6 -48 -4 -52 13 -21 23
-2 34 65 16 102 16 99 3 104 -7 3 -14 -11 -18 -34z"/>
<path d="M3442 5887 c-26 -28 -52 -77 -52 -99 0 -30 18 -20 30 17 6 20 23 49
36 65 29 34 16 50 -14 17z"/>
<path d="M3530 5810 c0 -11 5 -20 10 -20 6 0 10 9 10 20 0 11 -4 20 -10 20 -5
0 -10 -9 -10 -20z"/>
<path d="M3478 5783 c54 -75 122 -113 251 -140 66 -13 75 -13 89 1 21 21 11
28 -40 32 -63 5 -137 24 -183 48 -43 22 -46 24 -88 61 -37 33 -53 32 -29 -2z"/>
<path d="M3620 5790 c0 -11 5 -20 10 -20 6 0 10 9 10 20 0 11 -4 20 -10 20 -5
0 -10 -9 -10 -20z"/>
<path d="M3706 5793 c-12 -12 -6 -43 9 -43 8 0 15 9 15 19 0 21 -13 34 -24 24z"/>
<path d="M3285 5778 c-5 -17 -25 -141 -25 -156 0 -7 6 -12 14 -12 9 0 15 18
20 53 3 28 9 69 12 90 5 25 3 37 -5 37 -6 0 -13 -6 -16 -12z"/>
<path d="M3780 5755 c0 -17 5 -25 13 -22 6 2 12 12 12 22 0 10 -6 20 -12 23
-8 2 -13 -6 -13 -23z"/>
<path d="M3854 5744 c3 -9 6 -18 6 -20 0 -2 4 -4 9 -4 5 0 7 9 4 20 -3 11 -10
20 -15 20 -6 0 -7 -7 -4 -16z"/>
<path d="M3910 5731 c0 -11 5 -23 10 -26 6 -3 10 3 10 14 0 11 -4 23 -10 26
-5 3 -10 -3 -10 -14z"/>
<path d="M9430 5729 c-36 -4 -73 -10 -83 -14 -24 -10 -31 -48 -18 -101 9 -35
9 -49 0 -60 -7 -8 -9 -27 -4 -46 9 -45 9 -76 0 -121 -5 -25 -4 -46 4 -60 8
-16 9 -35 3 -64 -6 -24 -6 -47 0 -57 5 -9 5 -23 -1 -34 -12 -22 -10 -381 2
-400 5 -7 4 -27 -2 -45 -7 -19 -9 -67 -6 -112 8 -110 8 -97 2 -329 -3 -115 -1
-233 3 -264 5 -30 6 -60 3 -66 -13 -20 -14 -177 -2 -192 6 -8 8 -21 4 -31 -4
-10 -9 -99 -11 -198 l-3 -180 -30 -56 c-30 -55 -74 -89 -113 -89 -8 0 -23 -6
-34 -14 -10 -8 -29 -12 -41 -10 -11 3 -30 1 -41 -5 -13 -7 -22 -7 -30 1 -10
10 -142 11 -297 2 -61 -4 -73 -4 -122 -3 -16 1 -73 0 -128 -3 -55 -2 -127 0
-160 4 -34 4 -77 3 -98 -3 -23 -6 -44 -6 -54 0 -11 5 -25 5 -40 -2 -16 -7 -34
-7 -64 2 -27 8 -44 9 -53 2 -12 -10 -155 -8 -219 4 -23 5 -42 3 -51 -4 -11 -9
-29 -8 -77 3 -38 8 -68 11 -74 6 -22 -18 -91 -21 -154 -6 -37 9 -69 11 -75 7
-19 -16 -112 -17 -129 -2 -14 11 -20 11 -32 1 -9 -7 -37 -13 -63 -12 -26 1
-85 2 -132 3 -47 0 -110 2 -140 2 -56 1 -318 -2 -355 -4 -11 0 -56 0 -100 1
-44 1 -111 1 -150 1 -38 0 -76 5 -83 11 -9 8 -16 8 -23 1 -6 -6 -36 -9 -73 -6
-38 4 -71 1 -85 -6 -12 -7 -27 -8 -34 -4 -15 10 -119 12 -132 3 -5 -4 -39 -4
-75 0 -43 6 -69 5 -78 -2 -9 -8 -20 -7 -37 2 -19 10 -28 10 -39 1 -10 -9 -20
-9 -38 0 -17 7 -36 8 -60 1 -19 -5 -52 -6 -74 -3 -21 4 -49 3 -62 -3 -16 -6
-26 -6 -34 2 -14 14 -92 16 -116 3 -11 -6 -39 -5 -72 1 -30 5 -81 13 -115 16
l-60 7 3 53 4 54 -70 66 -69 67 -26 110 c-57 245 -74 402 -81 765 -6 274 -23
405 -63 488 -20 42 -41 65 -97 106 -39 29 -96 67 -126 83 -30 17 -111 61 -180
98 -69 38 -137 76 -151 86 -32 23 -46 75 -25 98 14 16 12 66 -4 76 -8 5 -5
121 5 189 3 21 1 43 -4 50 -5 6 -11 20 -13 31 -3 15 -15 1 -47 -55 -24 -41
-58 -91 -76 -110 -17 -20 -37 -57 -45 -83 -9 -36 -17 -47 -28 -42 -11 4 -12 2
-5 -7 6 -7 24 -51 41 -98 16 -47 44 -121 61 -165 91 -233 132 -534 111 -800
-8 -96 -42 -311 -57 -355 -8 -27 -35 66 -68 235 -26 135 -47 216 -66 255 -10
20 -16 46 -13 57 3 11 -1 25 -10 32 -9 8 -16 24 -16 38 0 34 -29 120 -46 134
-8 6 -14 22 -14 35 0 13 -14 51 -31 84 -25 46 -29 63 -20 73 6 8 13 50 16 95
5 81 5 81 -22 95 -57 28 -223 -5 -223 -44 0 -9 22 -53 50 -98 48 -81 49 -84
39 -129 -6 -26 -10 -87 -8 -137 1 -49 2 -109 1 -132 -1 -62 -1 -69 1 -169 1
-50 -1 -129 -6 -175 -4 -46 -7 -104 -6 -129 0 -24 -3 -41 -8 -37 -4 5 -33 77
-64 160 -31 84 -76 204 -100 267 -36 97 -159 348 -371 760 -80 156 -112 248
-113 320 0 36 4 73 9 83 7 14 3 17 -21 17 -34 0 -57 -22 -96 -92 -52 -91 -156
-153 -400 -237 -348 -121 -470 -177 -597 -272 -168 -127 -241 -252 -408 -699
-181 -487 -429 -1262 -421 -1318 2 -9 -3 -28 -11 -42 -11 -18 -15 -57 -15
-135 0 -93 3 -118 23 -159 33 -72 85 -130 166 -187 72 -51 847 -445 921 -469
68 -22 85 -38 85 -80 0 -21 -7 -74 -15 -117 -18 -93 -19 -124 -4 -156 16 -36
50 -47 145 -47 128 0 333 -47 531 -121 227 -85 313 -59 387 120 75 181 143
186 372 26 243 -170 319 -215 359 -215 42 0 68 38 114 167 25 67 51 125 59
128 25 9 91 -42 202 -155 107 -110 134 -130 168 -130 18 0 21 9 28 78 8 88 -1
423 -16 605 -10 113 -74 561 -86 599 -3 11 16 3 59 -26 80 -54 110 -65 602
-225 881 -287 1052 -341 1072 -341 35 0 60 45 82 143 49 216 92 422 97 461 6
39 4 45 -26 68 l-32 25 33 7 c22 4 37 2 49 -9 24 -22 28 -20 72 30 22 25 53
52 68 60 32 17 311 95 338 95 33 0 55 -35 49 -77 -7 -44 -55 -93 -90 -93 -16
0 -18 -3 -8 -9 7 -5 22 -6 33 -3 11 2 30 -1 44 -8 18 -10 36 -11 76 -3 55 11
274 11 285 -1 3 -3 14 1 24 10 13 12 27 14 46 9 45 -11 462 -15 468 -5 8 12
102 13 109 1 5 -7 211 -7 242 0 5 1 21 -1 35 -5 15 -4 52 -3 83 3 41 8 63 7
82 -1 19 -9 33 -9 58 0 25 9 52 10 109 2 56 -8 82 -8 97 0 16 9 25 8 35 0 11
-9 27 -9 68 0 43 10 65 10 105 0 33 -7 57 -8 68 -2 10 6 32 6 58 0 22 -6 87
-8 142 -5 58 3 105 2 111 -4 6 -6 31 -5 67 2 32 6 104 8 159 5 56 -3 120 -1
142 4 22 5 56 12 75 15 22 4 53 22 82 49 41 38 47 48 53 99 7 56 7 57 -17 57
-13 0 -29 5 -35 11 -8 8 -17 8 -30 0 -11 -5 -62 -10 -114 -9 -52 0 -141 -1
-199 -1 l-105 -2 37 23 c21 12 40 29 43 38 3 9 23 27 45 39 24 13 40 30 40 40
0 10 7 24 16 32 8 7 24 29 34 49 10 20 26 42 35 50 11 9 14 22 10 41 -4 18 -1
37 9 51 16 22 22 89 10 101 -10 10 -5 348 6 421 10 60 9 70 -6 87 -15 16 -15
23 -5 43 10 17 10 33 2 61 -6 25 -7 44 -1 56 6 10 10 66 9 126 0 59 0 115 0
123 1 8 -1 76 -3 150 -3 74 -1 152 4 173 6 28 4 49 -7 75 -11 27 -12 41 -4 54
14 23 14 71 0 85 -7 7 -8 17 -3 25 10 16 13 495 3 563 -5 35 -3 56 6 71 9 13
10 26 4 35 -5 8 -6 26 -3 41 10 50 -12 64 -86 57z m-7243 -2669 c30 -99 67
-288 58 -298 -5 -5 -67 28 -103 56 -27 21 -40 24 -81 20 -28 -3 -55 -2 -61 2
-17 11 1 41 45 74 40 31 47 69 16 86 -19 10 -19 12 9 73 15 34 36 87 46 117
l18 55 9 -35 c4 -19 24 -87 44 -150z"/>
<path d="M3355 5678 c-3 -12 -18 -120 -20 -142 0 -5 5 -11 11 -13 11 -4 34 95
34 145 0 24 -18 30 -25 10z"/>
<path d="M3960 5588 c0 -27 5 -48 10 -48 13 0 13 60 0 80 -7 11 -10 2 -10 -32z"/>
<path d="M3416 5558 c-11 -66 -11 -81 0 -85 11 -4 24 47 24 95 0 34 -18 26
-24 -10z"/>
<path d="M3914 5533 c3 -21 6 -46 6 -55 0 -10 5 -18 10 -18 11 0 14 69 4 94
-12 32 -27 16 -20 -21z"/>
<path d="M5395 5506 c-114 -30 -199 -87 -277 -184 -52 -64 -98 -208 -98 -304
0 -54 26 -151 58 -217 35 -71 132 -168 207 -207 223 -117 503 -47 637 158 60
92 83 169 82 278 -3 213 -123 385 -323 461 -70 27 -214 34 -286 15z"/>
<path d="M3860 5456 c0 -31 5 -56 10 -56 6 0 10 22 10 49 0 28 -4 53 -10 56
-6 4 -10 -15 -10 -49z"/>
<path d="M3486 5484 c-11 -28 -6 -54 9 -54 10 0 15 11 15 35 0 36 -13 47 -24
19z"/>
<path d="M3560 5426 c0 -38 14 -55 24 -30 11 29 6 64 -9 64 -10 0 -15 -10 -15
-34z"/>
<path d="M3790 5400 c0 -33 4 -60 10 -60 6 0 10 27 10 60 0 33 -4 60 -10 60
-6 0 -10 -27 -10 -60z"/>
<path d="M3630 5395 c0 -25 5 -45 10 -45 6 0 10 20 10 45 0 25 -4 45 -10 45
-5 0 -10 -20 -10 -45z"/>
<path d="M3707 5433 c-8 -17 0 -87 11 -91 8 -2 12 12 12 47 0 45 -11 66 -23
44z"/>
<path d="M7298 5224 c-4 -4 -123 -9 -265 -11 -142 -2 -267 -5 -278 -5 -11 0
-60 0 -110 2 -129 2 -235 -9 -235 -27 0 -19 15 -23 116 -29 122 -7 893 -8
1032 -1 61 3 114 2 116 -2 5 -8 104 -5 146 4 18 4 36 2 44 -4 7 -6 22 -8 31
-4 21 7 44 7 258 0 87 -4 162 -9 167 -12 5 -3 18 -2 28 4 11 6 24 6 35 -1 25
-13 349 -11 357 3 4 6 7 20 6 32 -1 25 -38 37 -116 36 -82 -1 -110 0 -285 6
-88 2 -176 5 -195 4 -19 0 -48 0 -65 0 -57 1 -680 0 -700 -1 -11 0 -34 2 -50
6 -17 4 -33 4 -37 0z"/>
<path d="M6727 4874 c-1 -1 -78 -4 -170 -7 -165 -5 -205 -13 -181 -37 14 -14
222 -19 890 -24 303 -2 560 -6 571 -10 12 -4 24 -2 28 4 4 6 13 7 23 1 18 -9
156 -6 235 4 43 6 47 9 47 35 0 33 -20 39 -103 34 -28 -2 -58 -4 -64 -3 -28 1
-72 0 -158 -1 -49 -1 -98 1 -108 5 -9 4 -31 2 -47 -5 -20 -8 -34 -9 -43 -3 -9
8 -333 9 -357 2 -3 -1 -9 0 -15 1 -12 3 -545 6 -548 4z"/>
<path d="M6700 2800 c0 -17 20 -21 40 -7 19 13 19 14 -10 15 -16 0 -30 -3 -30
-8z"/>
</g>
</svg>
